<svg width="61" height="18" viewBox="0 0 61 18" fill="none" xmlns="http://www.w3.org/2000/svg">
  <g clip-path="url(#clip0_233_257)">
    <path d="M3.70653 4.27815V7.70852H10.1109V11.1869H3.70653V17.5918H0V0.799805H10.5331V4.27815H3.70653Z"
      fill="white" />
    <path d="M23.6465 14.1135V17.5918H13.1135V0.799805H16.8434V14.1135H23.6465Z" fill="white" />
    <path
      d="M29.464 4.27815V7.20475H36.103V10.5632H29.464V14.1135H36.5252V17.5918H25.8045V0.799805H36.5252V4.27815H29.464Z"
      fill="white" />
    <path
      d="M60.7711 0.799805V5.71324L54.6726 8.39797L52.735 9.15779L54.7043 9.94289L60.771 12.6784V17.5918L49.6223 11.7412L38.5371 17.4145V12.6023L43.9685 10.1708L46.3507 9.20837L44.0956 8.29665L38.5371 5.76398V0.951704L49.5906 6.62512L60.7711 0.799805Z"
      fill="white" />
  </g>
  <defs>
    <clipPath id="clip0_233_257">
      <rect width="60.7711" height="16.792" fill="white" transform="translate(0 0.799805)" />
    </clipPath>
  </defs>
</svg>