<svg width="22" height="20" viewBox="0 0 22 20" fill="none" xmlns="http://www.w3.org/2000/svg">
<g id="&#240;&#159;&#166;&#134; icon &#34;instagram&#34;">
<path id="Vector" d="M10.9999 14C13.4544 14 15.4443 12.2091 15.4443 9.99997C15.4443 7.79083 13.4544 5.99997 10.9999 5.99997C8.54526 5.99997 6.55542 7.79083 6.55542 9.99997C6.55542 12.2091 8.54526 14 10.9999 14Z" stroke="white" stroke-width="2" stroke-linecap="round" stroke-linejoin="round"/>
<path id="Vector_2" d="M1 14V6C1 3.23858 3.48731 1 6.55556 1H15.4444C18.5127 1 21 3.23858 21 6V14C21 16.7614 18.5127 19 15.4444 19H6.55556C3.48731 19 1 16.7614 1 14Z" stroke="white" stroke-width="2"/>
<path id="Vector_3" d="M17.1111 4.5091L17.1228 4.49896" stroke="white" stroke-width="2" stroke-linecap="round" stroke-linejoin="round"/>
</g>
</svg>
