<svg width="97" height="50" viewBox="0 0 97 50" fill="none" xmlns="http://www.w3.org/2000/svg">
            <g clip-path="url(#clip0_298_798)">
              <path d="M70.7041 33.5879C70.1256 34.5156 69.55 35.4294 68.9831 36.349C66.3372 40.6412 63.6889 44.9317 61.0587 49.2344C60.8518 49.5728 60.6495 49.6927 60.2693 49.6921C53.4958 49.681 46.7223 49.6877 39.9488 49.6862C39.7252 49.6861 39.4341 49.8195 39.3145 49.5013C39.2114 49.227 39.4341 49.0327 39.5601 48.8269C42.4554 44.1005 45.3539 39.3762 48.2498 34.6502C49.454 32.685 50.6741 30.73 51.843 28.7419C52.2008 28.1332 52.6076 27.8836 53.2962 27.8847C65.3383 27.904 77.3805 27.9075 89.4226 27.8829C90.2164 27.8813 90.4419 28.1058 90.4378 28.9449C90.4061 35.4853 90.4031 42.0261 90.4406 48.5664C90.446 49.4988 90.1728 49.7095 89.3199 49.7038C83.5098 49.6653 77.6992 49.6671 71.8892 49.707C71.0895 49.7125 70.8607 49.4959 70.8672 48.6583C70.904 43.9191 70.8909 39.1794 70.8857 34.4398C70.8854 34.1754 71.0262 33.8709 70.7041 33.5879Z" fill="#E6E3E3" />
              <path d="M75.3105 15.1875C70.5549 15.1875 65.7993 15.1889 61.0437 15.1833C60.8189 15.183 60.5212 15.3279 60.3879 15.0429C60.2632 14.7762 60.5206 14.5812 60.6435 14.3805C63.2924 10.0533 65.9582 5.73749 68.59 1.39889C68.9515 0.802882 69.3228 0.547837 70.0254 0.551554C76.4364 0.585472 82.8476 0.589575 89.2585 0.553253C90.1292 0.54832 90.4658 0.723055 90.453 1.72902C90.3996 5.8982 90.4145 10.0687 90.4442 14.2384C90.4498 15.0145 90.1651 15.1976 89.4871 15.1945C84.7616 15.1731 80.036 15.1832 75.3105 15.1832L75.3105 15.1875Z" fill="#E6E3E3" />
              <path d="M15.1287 22.1558C16.1553 21.0289 17.1798 19.9001 18.2092 18.7762C18.6261 18.3209 19.1136 17.922 19.4636 17.417C20.1963 16.3598 21.2207 16.462 22.2425 16.5483C22.7438 16.5907 22.9772 16.9011 22.8529 17.4702C22.329 19.8703 21.8163 22.2732 21.3082 24.6771C21.2366 25.016 21.1163 25.3198 20.7518 25.3018C20.2197 25.2755 19.6474 25.5007 19.1659 25.1748C18.9456 25.0257 19.1465 24.7061 19.1997 24.4692C19.5437 22.9395 19.8915 21.4107 20.2369 19.8867C19.902 19.7239 19.8348 20.0098 19.7085 20.1474C18.3095 21.6705 16.9188 23.2017 15.5207 24.7256C15.0746 25.2118 12.8492 25.5871 12.2837 25.2854C11.9301 25.0967 12.0996 24.804 12.1581 24.5439C12.5093 22.9829 12.8667 21.4235 13.2202 19.8715C12.9488 19.6956 12.8668 19.9397 12.7633 20.0525C11.6782 21.2351 10.4958 22.3416 9.55227 23.6389C8.49414 25.0939 7.1944 25.5467 5.56264 25.3292C5.39072 25.3063 5.16405 25.3932 5.09864 25.1636C5.03802 24.9509 5.25109 24.851 5.37583 24.7221C7.84187 22.1748 10.3053 19.6248 12.7738 17.0801C13.2683 16.5703 14.8701 16.316 15.4892 16.6208C15.9741 16.8596 15.8719 17.268 15.7831 17.6769C15.5088 18.939 15.2336 20.2009 14.9611 21.4634C14.9233 21.6382 14.8096 21.8186 15.1287 22.1558Z" fill="#E6E3E3" />
              <path d="M34.7113 15.1766C34.2605 15.1766 33.8097 15.1732 33.3589 15.1772C31.8746 15.1906 31.8671 15.193 31.62 13.6984C31.3429 12.0217 31.0878 10.3409 30.808 8.66472C30.7411 8.26359 30.8237 8.0322 31.2118 7.8598C33.2566 6.95133 35.2887 6.01124 37.3284 5.09009C37.4585 5.03136 37.6796 4.96324 37.7512 5.02866C38.6052 5.80888 39.8564 6.20306 40.0917 7.59583C40.3068 8.8682 40.4881 10.1471 40.7194 11.4161C40.8031 11.8753 40.7253 12.202 40.3575 12.48C40.0417 12.7188 39.7364 12.9837 39.4677 13.2784C38.1661 14.7062 36.7377 15.7596 34.7113 15.1766Z" fill="#E6E3E3" />
              <path d="M53.1745 0.991637C50.944 2.99252 48.714 4.99388 46.483 6.99402C45.7301 7.66899 44.957 8.32064 44.2279 9.02269C43.8635 9.37356 43.611 9.36504 43.2452 9.02578C42.481 8.31715 41.6823 7.64888 40.8866 6.97858C39.9799 6.21472 40.2659 5.07413 40.0627 4.09391C40.0126 3.85208 40.3557 3.73003 40.5746 3.63017C42.5824 2.71454 44.5912 1.80132 46.6009 0.890107C46.7104 0.840464 46.8297 0.783242 46.9446 0.782881C49.0001 0.776404 51.0556 0.778176 53.1111 0.778176L53.1745 0.991637Z" fill="#E6E3E3" />
              <path d="M25.6543 34.0867C25.6043 34.5335 25.5154 34.8524 25.5429 35.1599C25.7047 36.9668 24.8019 37.8262 23.2617 38.386C21.5637 39.0032 19.9404 39.8502 18.2952 40.6222C17.9385 40.7896 17.7331 40.7432 17.434 40.4604C16.4597 39.5394 16.011 38.5203 16.4951 37.1359C16.6992 36.5524 16.7323 35.9014 16.83 35.2789C17.114 33.4704 18.0197 32.7316 19.7771 32.8442C21.4282 32.9501 23.0803 33.0708 24.7332 33.0978C25.5453 33.1111 25.8664 33.3723 25.6543 34.0867Z" fill="#E6E3E3" />
              <path d="M0.178713 48.2527C1.39076 46.2777 2.60106 44.3014 3.81525 42.3278C5.73686 39.2044 7.67394 36.0912 9.57278 32.9526C9.93071 32.3609 10.1494 32.2735 10.5918 32.8544C11.3792 33.8881 12.1942 34.9027 13.0547 35.8693C13.5132 36.3845 13.4014 36.6582 12.9395 37.0682C9.47628 40.1419 6.03246 43.2397 2.58365 46.3313C1.83165 47.0054 1.08392 47.6847 0.334226 48.3617L0.178713 48.2527Z" fill="#E6E3E3" />
              <path d="M7.14141 49.6924C5.1564 49.6924 3.17137 49.6971 1.18641 49.6864C0.944539 49.6851 0.570912 49.8658 0.503254 49.4736C0.450647 49.1687 0.804278 49.1542 1.01714 49.0572C5.42498 47.048 9.83133 45.0351 14.2387 43.0247C14.4454 42.9304 14.6524 42.6748 14.8848 42.8966C15.0675 43.071 14.912 43.3199 14.8772 43.5255C14.5726 45.3275 14.2276 47.1225 13.9572 48.9299C13.8681 49.5247 13.661 49.7075 13.0963 49.6981C11.1118 49.665 9.12645 49.6853 7.14142 49.6853C7.14142 49.6877 7.14141 49.69 7.14141 49.6924Z" fill="#E6E3E3" />
              <path d="M19.2537 49.6893C17.9012 49.6889 16.5479 49.6613 15.1965 49.701C14.5604 49.7196 14.3262 49.5465 14.4602 48.8415C14.8306 46.8942 15.1646 44.9391 15.4966 42.984C15.6858 41.8703 16.7213 42.0146 17.3692 41.6097C17.808 41.3355 18.0014 41.9517 18.2358 42.2341C20.0509 44.4208 21.8516 46.6205 23.6506 48.8218C23.8146 49.0225 24.1335 49.1942 23.9666 49.5288C23.8313 49.8002 23.5393 49.6859 23.3111 49.6868C21.9587 49.6926 20.6062 49.6897 19.2537 49.6893Z" fill="#E6E3E3" />
              <path d="M33.9871 34.2257C30.9496 39.1573 27.9122 44.089 24.8747 49.0206C24.8079 48.9986 24.741 48.9765 24.6741 48.9544C24.7359 48.2589 24.7913 47.5627 24.8605 46.868C25.1386 44.0744 25.425 41.2816 25.6972 38.4874C25.7356 38.0928 25.7847 37.753 26.1899 37.5684C28.7426 36.406 31.2902 35.2316 33.8396 34.0612C33.8887 34.116 33.9379 34.1708 33.9871 34.2257Z" fill="#E6E3E3" />
              <path d="M34.5471 36.419C33.8977 34.116 35.1221 32.8734 36.7959 31.7447C38.361 30.6893 39.8071 29.4388 41.2976 28.263C41.5186 28.0887 41.7229 27.928 42.0134 27.9069C42.5961 27.8647 42.7956 28.0578 42.5457 28.6758C41.5357 31.1733 40.543 33.6786 39.5479 36.1827C39.4029 36.5475 39.1785 36.8083 38.842 37.0039C37.6318 37.7071 36.4262 38.42 35.2365 39.1605C34.6472 39.5273 34.5206 39.306 34.5411 38.6936C34.5664 37.9362 34.5471 37.1773 34.5471 36.419Z" fill="#E6E3E3" />
              <path d="M1.19366 48.2655C2.30437 47.2606 3.26379 46.384 4.23203 45.5182C7.25025 42.8194 10.285 40.1406 13.2791 37.4126C13.7772 36.9588 13.9606 37.0956 14.4144 37.4824C15.7798 38.6464 15.6297 40.0546 15.2424 41.5742C15.1189 42.0588 14.7722 42.1914 14.4178 42.3537C10.4851 44.1557 6.55426 45.962 2.614 47.7456C2.22438 47.9219 1.88854 48.2856 1.19366 48.2655Z" fill="#E6E3E3" />
              <path d="M37.2481 17.7805C37.9705 17.7792 38.6939 17.7554 39.4147 17.7899C39.7423 17.8056 40.3556 17.5426 40.2389 18.254C40.1473 18.8117 40.3756 19.7012 39.3428 19.6825C38.079 19.6596 36.8146 19.678 35.5504 19.68C35.3398 19.6804 35.126 19.6655 34.9194 19.6978C34.6014 19.7475 34.3139 19.9177 34.3051 20.2784C34.2948 20.7006 34.6451 20.7542 34.95 20.7599C35.7022 20.7741 36.4548 20.7614 37.2073 20.7631C38.8676 20.7669 39.7842 21.3755 39.8619 22.5227C39.9421 23.706 38.7768 25.1558 37.423 25.2575C35.6861 25.3879 33.9345 25.3037 32.1892 25.3121C31.8317 25.3138 31.6874 25.1186 31.78 24.7681C31.9277 24.2095 31.74 23.394 32.6616 23.3877C33.8955 23.3793 35.1295 23.388 36.3635 23.3888C36.6042 23.389 36.8461 23.4026 37.0854 23.3824C37.45 23.3515 37.7575 23.1851 37.7405 22.7571C37.7232 22.322 37.3657 22.3329 37.0619 22.3313C36.1589 22.3267 35.2554 22.3071 34.3532 22.3338C33.4121 22.3618 32.6821 21.979 32.3104 21.0847C31.9401 20.1937 32.3216 19.4441 32.9174 18.7776C33.6605 17.9463 34.5806 17.7103 35.6231 17.7759C36.1629 17.8099 36.7063 17.7819 37.2481 17.7805Z" fill="#E6E3E3" />
              <path d="M59.0556 25.3233C58.1231 25.3229 57.1898 25.2967 56.2585 25.3322C55.6477 25.3555 55.46 25.1648 55.6046 24.5069C56.037 22.5393 56.4401 20.564 56.8133 18.5831C56.9278 17.9754 57.1687 17.745 57.7726 17.7597C59.4262 17.7998 61.0812 17.7666 62.7354 17.7862C63.0721 17.7901 63.6698 17.5619 63.5615 18.2574C63.4731 18.8246 63.6485 19.6984 62.6423 19.6798C61.5898 19.6604 60.5364 19.6894 59.4842 19.6649C58.9727 19.653 58.5313 19.7421 58.5593 20.38C58.5861 20.9896 59.0987 20.7421 59.4071 20.7553C60.1274 20.7863 60.8514 20.7281 61.5715 20.762C61.903 20.7776 62.4782 20.5092 62.459 21.1898C62.4424 21.7802 62.3423 22.4039 61.4906 22.3403C60.7124 22.2822 59.9273 22.3258 59.1452 22.3259C58.9648 22.3259 58.7844 22.3308 58.6039 22.3341C58.1741 22.342 58.0259 22.6389 58.0252 23.0201C58.0243 23.4405 58.3485 23.4028 58.6165 23.4018C59.7895 23.3977 60.9625 23.3821 62.1355 23.3838C62.4666 23.3843 63.034 23.2276 62.9298 23.7963C62.8297 24.3426 63.1225 25.2825 62.1235 25.316C61.1018 25.3502 60.0783 25.3236 59.0556 25.3233Z" fill="#E6E3E3" />
              <path d="M74.3171 25.3169C73.3843 25.3157 72.4511 25.2984 71.5188 25.3226C71.0085 25.3359 70.8022 25.1881 70.928 24.6087C71.3684 22.5799 71.8075 20.5499 72.1859 18.5079C72.3009 17.8874 72.5787 17.7638 73.1054 17.7711C74.7902 17.7943 76.4757 17.768 78.1605 17.7913C78.4595 17.7955 79.0717 17.6066 78.904 18.2304C78.7681 18.7359 79.0677 19.648 78.1129 19.6669C76.9999 19.6889 75.886 19.6843 74.773 19.6621C74.286 19.6524 73.9114 19.7696 73.9034 20.3484C73.8943 21.0078 74.4027 20.7412 74.7019 20.7535C75.4831 20.7856 76.2671 20.743 77.0482 20.7751C77.3509 20.7876 77.9033 20.5872 77.7924 21.237C77.7143 21.6942 77.8155 22.3785 76.9921 22.3365C76.0615 22.2891 75.1266 22.3413 74.1942 22.3198C73.6952 22.3083 73.3348 22.4631 73.3599 23.0367C73.3851 23.6137 73.854 23.3733 74.1309 23.3796C75.2437 23.405 76.3578 23.3678 77.4704 23.3977C77.7901 23.4062 78.4209 23.1535 78.2717 23.8756C78.1584 24.4242 78.4218 25.3381 77.3864 25.3217C76.3635 25.3054 75.3403 25.3181 74.3171 25.3169Z" fill="#E6E3E3" />
              <path d="M91.6166 20.7618C92.9027 20.7664 93.6905 20.0947 93.9801 18.7466C94.1657 17.8824 95.2029 17.3904 95.9651 17.7981C96.2631 17.9575 96.1776 18.2106 96.1287 18.4519C95.7038 20.5486 95.3088 22.6529 94.8344 24.7373C94.5851 25.8326 93.6752 25.2714 93.0855 25.2753C92.3887 25.2798 92.7984 24.6533 92.8561 24.3388C93.2256 22.3234 93.2396 22.3262 91.2941 22.3263C89.9223 22.3264 89.0856 23.0156 88.784 24.3938C88.6125 25.1772 87.4074 25.6952 86.7521 25.272C86.5108 25.1162 86.5858 24.9074 86.6309 24.6893C87.0632 22.5955 87.4852 20.4993 87.926 18.4075C88.052 17.8097 88.8936 17.526 89.725 17.7823C90.3814 17.9846 89.9813 18.4428 89.9048 18.779C89.4558 20.7547 89.4475 20.7527 91.3461 20.7613C91.4363 20.7617 91.5265 20.7613 91.6166 20.7618Z" fill="#E6E3E3" />
              <path d="M26.3128 25.2932C25.7114 25.2932 25.1072 25.3327 24.5092 25.2852C23.1501 25.1772 22.4221 24.1242 22.7086 22.7342C22.9944 21.3475 23.2759 19.9597 23.5711 18.5752C23.7161 17.8951 25.0808 17.4135 25.5809 17.853C25.824 18.0668 25.6843 18.328 25.64 18.5565C25.3945 19.824 25.1607 21.0955 24.8618 22.3496C24.6724 23.1444 24.9757 23.402 25.6683 23.3897C26.0591 23.3827 26.4502 23.3856 26.8412 23.3852C28.7432 23.3836 28.7363 23.3823 29.1139 21.3709C29.2997 20.3814 29.5037 19.3952 29.7222 18.4131C29.9732 17.2853 30.8522 17.8139 31.4395 17.8055C32.1843 17.7948 31.7928 18.4657 31.7357 18.8046C31.5215 20.075 31.2341 21.3318 30.9789 22.5947C30.6539 24.2026 29.5107 25.2318 27.9367 25.3034C27.3964 25.328 26.8542 25.3073 26.3128 25.3073C26.3128 25.3026 26.3128 25.2979 26.3128 25.2932Z" fill="#E6E3E3" />
              <path d="M24.1695 48.6617C22.1276 46.1697 20.2756 43.9005 18.411 41.6426C18.1156 41.2849 18.3361 41.1317 18.5953 41.0122C20.6554 40.0619 22.7155 39.111 24.7873 38.1892C25.3583 37.9351 25.1904 38.446 25.166 38.7059C24.9747 40.7484 24.7696 42.7895 24.565 44.8307C24.4462 46.0164 24.3205 47.2013 24.1695 48.6617Z" fill="#E6E3E3" />
              <path d="M53.1759 1.90993C52.1152 4.57666 51.0814 7.17803 50.0457 9.7786C49.6295 10.8236 49.205 11.8649 48.7931 12.9118C48.6325 13.3202 48.5024 13.5781 48.0438 13.1625C46.9318 12.1547 45.7861 11.1873 44.6391 10.2232C44.2876 9.92776 44.1696 9.7129 44.5803 9.34898C47.3748 6.87269 50.156 4.37995 52.9433 1.89473C52.9595 1.88028 53.001 1.89704 53.1759 1.90993Z" fill="#E6E3E3" />
              <path d="M53.6363 2.1311C53.9147 2.82821 53.7809 3.29823 53.7824 3.75417C53.7939 7.15789 53.7871 10.5617 53.7873 13.9654C53.7873 15.1977 53.7889 15.2062 52.5754 15.1965C51.456 15.1875 50.2759 15.4474 49.4034 14.3504C49.1816 14.0714 48.9535 13.8771 49.1197 13.4624C50.6055 9.75331 52.0804 6.03932 53.6363 2.1311Z" fill="#E6E3E3" />
              <path d="M44.5159 25.3129C43.8247 25.3129 43.1317 25.3456 42.4426 25.306C41.0556 25.2262 40.2926 24.1203 40.6026 22.709C40.7644 21.9719 40.9003 21.2286 41.048 20.4882C41.3823 18.8113 42.5971 17.7783 44.2556 17.7707C45.3075 17.766 46.3597 17.7621 47.4114 17.782C47.7273 17.788 48.296 17.6155 48.1729 18.2144C48.0646 18.7412 48.2892 19.6252 47.3648 19.6584C46.374 19.694 45.3808 19.6906 44.3897 19.6639C43.6423 19.6437 43.1946 19.9179 43.0892 20.7508C43.0184 21.3098 42.8741 21.8623 42.723 22.4055C42.5379 23.0708 42.779 23.377 43.4069 23.3839C44.4888 23.3957 45.5713 23.3754 46.6526 23.4064C47.0089 23.4167 47.647 23.1646 47.5209 23.9291C47.4277 24.4941 47.612 25.3746 46.5895 25.3282C45.8995 25.2969 45.2072 25.3222 44.5159 25.3222C44.5159 25.3191 44.5159 25.316 44.5159 25.3129Z" fill="#E6E3E3" />
              <path d="M83.0689 25.3039C82.4081 25.3039 81.7459 25.3325 81.0866 25.2981C79.6034 25.2208 78.8702 24.2094 79.17 22.6924C79.3285 21.8903 79.4618 21.0811 79.6579 20.2891C80.0439 18.7301 81.191 17.8067 82.7469 17.7802C83.8281 17.7619 84.91 17.7569 85.9909 17.7803C86.2936 17.7868 86.8915 17.6022 86.7411 18.2061C86.6127 18.7218 86.8666 19.6243 85.9426 19.6602C84.9526 19.6986 83.9595 19.6949 82.9692 19.6607C82.1689 19.6331 81.7228 19.9754 81.6146 20.8183C81.5586 21.2544 81.4563 21.684 81.3746 22.1164C81.1508 23.3016 81.2273 23.3991 82.4156 23.4023C83.3768 23.4048 84.3383 23.3867 85.2993 23.4039C85.6521 23.4102 86.2256 23.2609 86.0833 23.9394C85.9723 24.4691 86.2 25.3268 85.2318 25.3136C84.511 25.3038 83.7899 25.3117 83.0689 25.3117V25.3039Z" fill="#E6E3E3" />
              <path d="M31.5988 0.736083C32.4667 0.495919 33.2594 0.944096 34.0128 1.67493C34.8935 2.5293 35.8377 3.31433 36.7823 4.0922C37.2157 4.44916 37.2077 4.59326 36.6877 4.82053C34.9166 5.59463 33.1558 6.39574 31.4048 7.21884C30.8232 7.49223 30.6017 7.33515 30.5082 6.69546C30.2716 5.07691 30.0279 3.45768 29.7175 1.85357C29.5522 0.999684 29.697 0.582492 30.6095 0.729551C30.8737 0.772112 31.1493 0.736083 31.5988 0.736083Z" fill="#E6E3E3" />
              <path d="M33.6704 33.0674C31.4021 32.9356 29.1071 32.7993 26.8116 32.6715C26.396 32.6484 26.3311 32.4054 26.369 32.0357C26.4913 30.8442 26.5995 29.6511 26.7139 28.4586C26.7323 28.267 26.7747 28.1021 26.9587 27.9897C27.5594 27.6231 29.6787 27.9717 30.1452 28.5258C31.2597 29.8498 32.3746 31.1733 33.4887 32.4977C33.6018 32.6322 33.7893 32.7318 33.6704 33.0674Z" fill="#E6E3E3" />
              <path d="M67.9807 17.7674C68.8823 17.7674 69.7846 17.7462 70.6851 17.7795C70.98 17.7905 71.5585 17.5723 71.4488 18.1961C71.3546 18.7325 71.5852 19.5767 70.6825 19.6668C70.2655 19.7085 69.8387 19.7089 69.4217 19.668C68.8178 19.6087 68.5664 19.8921 68.4591 20.493C68.2161 21.8547 67.9269 23.2074 67.6507 24.5624C67.5898 24.8616 67.5923 25.2605 67.1996 25.2827C66.6674 25.3128 66.102 25.4549 65.6081 25.18C65.3736 25.0495 65.5287 24.7187 65.5781 24.4771C65.8486 23.1525 66.0902 21.8202 66.4042 20.507C66.5539 19.8809 66.4506 19.6007 65.8018 19.668C65.6232 19.6865 65.4319 19.7088 65.263 19.6627C64.8533 19.5508 64.1335 20.0754 64.1194 19.1197C64.1039 18.0716 64.4082 17.7662 65.3662 17.7639C66.2377 17.7618 67.1092 17.7634 67.9807 17.7634V17.7674Z" fill="#E6E3E3" />
              <path d="M51.4233 25.3169C50.5209 25.3169 49.6179 25.2984 48.7161 25.3238C48.1743 25.3391 48.0371 25.1332 48.1549 24.5834C48.5971 22.5213 48.9917 20.4478 49.4385 18.3868C49.6814 17.2665 50.57 17.7996 51.1542 17.806C51.909 17.8141 51.4766 18.4628 51.4179 18.807C51.2009 20.0792 50.9689 21.3525 50.6541 22.6008C50.4732 23.3181 50.7333 23.4181 51.3039 23.4025C52.2659 23.3762 53.2292 23.3821 54.1915 23.3976C54.5469 23.4034 55.1305 23.2577 54.9678 23.932C54.8431 24.4492 55.1077 25.3305 54.1307 25.3237C53.2283 25.3174 52.3258 25.3223 51.4233 25.3223L51.4233 25.3169Z" fill="#E6E3E3" />
              <path d="M13.6075 31.8164C12.7088 31.8164 11.8102 31.8141 10.9116 31.8175C10.4766 31.8191 10.361 31.658 10.6141 31.2532C11.2227 30.2801 11.8232 29.3014 12.4241 28.323C12.599 28.0381 12.8187 27.8868 13.1638 27.8916C14.3937 27.9087 15.6241 27.9108 16.8541 27.8959C17.3601 27.8897 17.5732 28.0656 17.4631 28.6274C17.2818 29.5519 17.112 30.4806 16.9856 31.4147C16.9081 31.9878 16.6231 32.137 16.1235 32.0988C15.286 32.0348 14.446 32.005 13.6071 31.9608C13.6072 31.9127 13.6073 31.8646 13.6075 31.8164Z" fill="#E6E3E3" />
              <path d="M44.8522 15.1957C44.0709 15.1957 43.2892 15.1783 42.5086 15.2026C42.0795 15.216 41.8358 15.0756 41.761 14.6046C41.6578 13.9538 41.5188 13.309 41.3859 12.6637C41.3256 12.3708 41.4715 12.1712 41.652 12.0041C42.2373 11.4623 42.8439 10.9455 43.4223 10.396C43.6856 10.1458 43.869 10.2018 44.1166 10.42C45.3812 11.5349 46.6575 12.6352 47.9324 13.7373C48.1857 13.9562 48.3309 14.1749 48.1671 14.5471C48.0022 14.9217 47.8053 15.1903 47.3762 15.1877C46.5349 15.1826 45.6935 15.1862 44.8522 15.1862C44.8522 15.1894 44.8522 15.1926 44.8522 15.1957Z" fill="#E6E3E3" />
              <path d="M24.6137 32.3242C23.028 32.3242 21.4423 32.3252 19.8566 32.3229C19.683 32.3226 19.4648 32.3735 19.3869 32.1534C19.3058 31.9241 19.5172 31.8449 19.6512 31.7252C20.9519 30.5636 22.2466 29.3944 23.5478 28.2334C23.8616 27.9534 25.6418 27.7595 25.9674 27.9428C26.2036 28.0758 26.1875 28.302 26.1684 28.5168C26.0629 29.706 25.9671 30.8968 25.8298 32.0821C25.7229 33.0043 25.0172 32.3892 24.6267 32.5955C24.6223 32.5051 24.618 32.4147 24.6137 32.3242Z" fill="#E6E3E3" />
              <path d="M38.8765 37.8232C37.5037 41.2623 36.131 44.7015 34.7582 48.1406C34.6906 48.1223 34.6231 48.104 34.5555 48.0857C34.5555 46.2147 34.6945 44.3288 34.5159 42.4767C34.3414 40.6665 34.9252 39.5964 36.5115 38.9549C37.2844 38.6424 37.9791 38.1169 38.7092 37.6877L38.8765 37.8232Z" fill="#E6E3E3" />
              <path d="M43.5343 35.0888C40.8579 39.449 38.1816 43.8092 35.5052 48.1693C35.4859 47.2683 35.9367 46.554 36.233 45.7907C37.2642 43.1342 38.3389 40.4963 39.3912 37.8487C39.5942 37.3377 39.8783 36.9388 40.369 36.6711C41.3946 36.1115 42.3943 35.4997 43.4046 34.9093C43.4479 34.9691 43.4911 35.029 43.5343 35.0888Z" fill="#E6E3E3" />
              <path d="M40.6421 28.1216C39.3515 29.1355 38.0616 30.1502 36.7702 31.1629C36.216 31.5975 35.6581 32.0267 35.1035 32.4605C34.7718 32.7201 34.5916 32.7063 34.5228 32.2078C34.3591 31.0218 34.1588 29.8412 33.9643 28.66C33.8835 28.1691 33.9659 27.8843 34.5383 27.8906C36.5423 27.9127 38.5467 27.8992 40.551 27.8992C40.5814 27.9733 40.6117 28.0475 40.6421 28.1216Z" fill="#E6E3E3" />
              <path d="M28.862 1.9744C28.7098 3.49738 28.4161 5.02305 28.4423 6.54266C28.4729 8.32198 27.646 9.12359 26.1629 9.59112C25.2286 9.88564 24.3512 10.3788 23.2921 10.6312C25.0738 7.72344 26.8555 4.8157 28.6372 1.90796C28.7122 1.9301 28.7871 1.95225 28.862 1.9744Z" fill="#E6E3E3" />
              <path d="M23.985 15.1861C23.0821 15.1854 22.1787 15.1676 21.2764 15.192C20.7286 15.2067 20.5096 15.0951 20.8818 14.5212C21.3894 13.7385 21.8732 12.9388 22.3613 12.1423C22.6306 11.7029 22.9265 11.5805 23.4142 11.8485C24.6388 12.5214 25.8863 13.1494 27.1351 13.7725C27.5188 13.9639 27.6909 14.211 27.6012 14.6628C27.5026 15.1591 27.1727 15.1949 26.784 15.1904C25.8511 15.1796 24.918 15.1869 23.985 15.1861Z" fill="#E6E3E3" />
              <path d="M33.1462 33.7337C32.4531 34.2513 31.6324 34.474 30.8768 34.8343C29.4326 35.523 27.9728 36.1755 26.5242 36.8543C26.0269 37.0874 25.8121 37.0388 25.9091 36.3799C26.0371 35.5108 26.1108 34.6314 26.1732 33.7538C26.2024 33.3438 26.3871 33.1938 26.7445 33.2131C28.8394 33.3261 30.9342 33.4408 33.0287 33.5617C33.0624 33.5637 33.0917 33.651 33.1462 33.7337Z" fill="#E6E3E3" />
              <path d="M43.4844 28.2884C43.7536 29.9557 44.0236 31.6229 44.2913 33.2905C44.3351 33.5633 44.2626 33.7856 44.0193 33.9292C42.7811 34.6603 41.5438 35.393 40.1475 35.9817C41.1789 33.4057 42.2102 30.8297 43.2415 28.2538C43.3225 28.2653 43.4034 28.2768 43.4844 28.2884Z" fill="#E6E3E3" />
              <path d="M28.2764 13.081C28.3832 11.9243 28.488 10.6998 28.6139 9.47765C28.653 9.09814 29.7128 8.32138 30.0503 8.39967C30.3111 8.46016 30.3266 8.70752 30.3601 8.91852C30.6609 10.8128 30.9611 12.7073 31.2481 14.6039C31.3213 15.0881 31.1343 15.2613 30.6867 15.0257C30.0158 14.6725 29.3471 14.3141 28.6685 13.9778C28.3157 13.803 28.1682 13.5467 28.2764 13.081Z" fill="#E6E3E3" />
              <path d="M22.8808 27.9063C22.7283 28.4632 22.3161 28.6489 22.0193 28.9219C21.0047 29.8555 19.9593 30.7522 18.9426 31.6835C18.566 32.0285 18.1706 32.4045 17.6738 32.1364C17.1521 31.8548 17.5508 31.3523 17.5992 30.9623C17.6999 30.152 17.859 29.3496 18.0022 28.5455C18.0662 28.1861 18.178 27.8947 18.626 27.9001C20.0209 27.917 21.4162 27.9063 22.8808 27.9063Z" fill="#E6E3E3" />
              <path d="M11.1019 32.3358C12.8025 32.4301 14.504 32.5092 16.203 32.6278C16.7074 32.663 16.8874 33.3649 16.4366 33.8581C15.7536 34.6055 14.968 35.2501 14.2207 35.9319C13.9693 36.1612 13.7869 35.9988 13.6163 35.7882C12.747 34.715 11.875 33.6441 11.0039 32.5724C11.0366 32.4935 11.0692 32.4147 11.1019 32.3358Z" fill="#E6E3E3" />
              <path d="M34.0301 0.749919C35.5437 0.749919 37.0573 0.747949 38.5709 0.751611C38.8672 0.752328 38.9858 0.965125 39.0319 1.23528C39.1377 1.85505 39.2705 2.47227 39.3322 3.09706C39.3892 3.67451 38.1194 4.51034 37.6612 4.14629C36.3891 3.13542 35.1805 2.03656 33.9467 0.97246C33.9745 0.89828 34.0023 0.824099 34.0301 0.749919Z" fill="#E6E3E3" />
              <path d="M46.0884 27.9057C46.5734 28.0292 47.3939 27.5544 47.6779 28.1008C47.8855 28.5003 47.1982 29.0985 46.9063 29.6035C46.3606 30.5475 45.7724 31.4644 45.2026 32.3931C45.1101 32.5439 45.0535 32.7936 44.8281 32.6865C44.7268 32.6383 44.6618 32.4346 44.6376 32.2909C44.4436 31.1413 44.2919 29.9831 44.0684 28.8402C43.9289 28.1272 44.1117 27.828 44.8234 27.8988C45.2111 27.9374 45.6051 27.9057 46.0884 27.9057Z" fill="#E6E3E3" />
              <path d="M28.1017 9.27307C27.9802 10.583 27.8724 11.7296 27.768 12.8765C27.7288 13.3072 27.5483 13.4136 27.1703 13.2157C26.1513 12.6823 25.1272 12.1594 24.0994 11.6451C23.6966 11.4436 23.7603 11.2269 24.0923 11.0733C25.3717 10.4815 26.6624 9.91646 28.1017 9.27307Z" fill="#E6E3E3" />
              <path d="M45.1887 0.979243C43.5754 1.7048 41.9622 2.43048 40.3487 3.15548C40.2938 3.18012 40.2172 3.23403 40.1828 3.21391C39.4695 2.79679 39.7995 1.99219 39.5799 1.38836C39.451 1.03414 39.5394 0.757285 39.9688 0.75664C41.6927 0.754051 43.4166 0.75557 45.1405 0.75557L45.1887 0.979243Z" fill="#E6E3E3" />
              <path d="M33.8026 32.0966C32.7573 30.8526 31.7061 29.6138 30.6721 28.3594C30.4888 28.1371 30.4365 27.8785 30.8703 27.901C30.9304 27.9041 30.9905 27.9055 31.0506 27.9072C33.9569 27.9886 33.1299 27.3022 33.7402 30.3178C33.8513 30.8665 33.9045 31.4281 33.9845 31.9837C33.9238 32.0213 33.8632 32.059 33.8026 32.0966Z" fill="#E6E3E3" />
              <path d="M40.5749 7.38879C41.5112 8.19368 42.2395 8.82098 42.9693 9.44644C43.2349 9.67412 43.2557 9.9047 42.986 10.1439C42.7809 10.3259 42.5953 10.5467 42.3639 10.6784C41.9855 10.8936 41.7643 11.6029 41.3312 11.3865C40.9668 11.2044 41.0822 10.5369 40.9994 10.0832C40.8548 9.29051 40.746 8.49058 40.5749 7.38879Z" fill="#E6E3E3" />
              <path d="M29.4477 3.14954C29.6747 4.56118 29.9625 5.96621 30.1025 7.3873C30.1702 8.07526 29.4331 8.19706 28.9986 8.22431C28.5811 8.25048 28.8172 7.73213 28.8374 7.46307C28.9446 6.03433 29.0784 4.60777 29.203 3.18046C29.2846 3.17015 29.3661 3.15985 29.4477 3.14954Z" fill="#E6E3E3" />
              <path d="M38.3295 14.981C39.0295 14.3516 39.7322 13.7253 40.4286 13.0916C40.8382 12.7188 40.9738 12.8995 41.0302 13.3769C41.2613 15.3351 41.7304 15.2054 39.6084 15.1953C39.2014 15.1934 38.7945 15.195 38.3876 15.195C38.3682 15.1237 38.3489 15.0524 38.3295 14.981Z" fill="#E6E3E3" />
              <path d="M16.354 34.9488C16.1934 35.9208 16.0348 36.8931 15.8704 37.8644C15.8441 38.0197 15.7283 38.2481 15.6006 38.1173C15.1781 37.6844 14.7409 37.237 14.4412 36.7122C14.2048 36.2983 14.74 36.1831 14.9481 35.9646C15.3234 35.5704 15.7429 35.2225 16.1439 34.8552C16.2139 34.8864 16.2839 34.9176 16.354 34.9488Z" fill="#E6E3E3" />
              <path d="M16.1027 39.7776C16.5605 39.9972 16.6768 40.385 16.9317 40.6346C17.1849 40.8825 17.1957 41.1133 16.8315 41.2604C16.5328 41.381 16.1514 41.6705 15.9486 41.5699C15.6083 41.4011 15.8831 40.9672 15.9169 40.6498C15.9458 40.3773 16.0292 40.1111 16.1027 39.7776Z" fill="#E6E3E3" />
              <path d="M39.667 5.77729C39.2877 5.75955 39.1231 5.41331 38.8753 5.21451C38.6941 5.06921 38.2644 4.95895 38.4913 4.62457C38.6378 4.40859 39.0009 4.27794 39.278 4.25462C39.6608 4.22241 39.6122 4.6264 39.6367 4.87903C39.6651 5.17094 39.8372 5.4671 39.667 5.77729Z" fill="#E6E3E3" />
              <path d="M29.04 15.2519C28.6805 15.0924 28.1633 15.4033 28.0648 14.7966C28.0219 14.532 28.2245 14.3426 28.4438 14.4746C28.7791 14.6763 29.3244 14.608 29.4201 15.1051C29.4665 15.3461 29.1521 15.2037 29.04 15.2519Z" fill="#E6E3E3" />
            </g>
            <defs>
              <clipPath id="clip0_298_798">
                <rect width="96" height="49.1753" fill="white" transform="translate(0.178711 0.551514)" />
              </clipPath>
            </defs>
          </svg>