<svg width="282" height="50" viewBox="0 0 282 50" fill="none" xmlns="http://www.w3.org/2000/svg">
            <g clip-path="url(#clip0_298_775)">
              <path d="M57.4406 17.2013C57.4406 21.8133 57.441 26.4254 57.4405 31.0374C57.44 36.5337 57.3755 42.0314 57.4777 47.5256C57.5073 49.1177 56.9872 49.5163 55.6118 49.3742C54.6223 49.272 53.6138 49.3076 52.6174 49.3593C51.5343 49.4156 51.1878 48.9775 51.1964 47.822C51.2435 41.4467 51.2107 35.0707 51.2092 28.695C51.2072 20.1207 51.2312 11.5462 51.1842 2.97219C51.1773 1.71042 51.4601 1.20747 52.7528 1.26346C55.1148 1.3658 57.4859 1.36374 59.8483 1.27015C60.9634 1.22598 61.2894 1.71099 61.447 2.74121C63.0146 12.9901 64.6132 23.2338 66.2046 33.4787C66.2534 33.7928 66.3181 34.1042 66.4124 34.6183C67.0329 33.8135 66.881 33.0013 66.9868 32.293C68.4537 22.4716 69.9113 12.6484 71.3002 2.8147C71.4683 1.62465 71.861 1.23277 72.9839 1.26884C75.2951 1.34308 77.6125 1.36468 79.9221 1.26884C81.1954 1.21601 81.5395 1.71499 81.5321 2.97025C81.4921 9.73051 81.5124 16.4912 81.5145 23.2517C81.5171 31.3861 81.5 39.5206 81.55 47.6548C81.5577 48.9141 81.2521 49.4675 79.9733 49.3717C78.718 49.2777 77.444 49.267 76.1913 49.3795C74.9806 49.4883 74.6684 49.0092 74.6788 47.804C74.7288 41.9783 74.7023 36.152 74.7087 30.3259C74.7132 26.2043 74.7293 22.0826 74.7321 17.961C74.7324 17.6001 74.8364 17.2099 74.3724 16.6452C73.9732 19.4127 73.6017 21.9725 73.235 24.5331C72.1618 32.0275 71.095 39.5229 70.0159 47.0164C69.6813 49.3399 69.667 49.3416 67.4201 49.3537C66.3688 49.3594 65.3085 49.2556 64.2682 49.3657C63.0229 49.4975 62.6928 48.9106 62.5142 47.7292C61.0302 37.912 59.4855 28.1048 57.9555 18.2953C57.898 17.9269 57.802 17.5652 57.7239 17.2004L57.4406 17.2013Z" fill="#E6E3E3" />
              <path d="M166.29 25.4305C166.29 17.9567 166.318 10.4827 166.264 3.00926C166.254 1.66111 166.592 1.19882 167.937 1.24689C171.035 1.35756 174.139 1.27388 177.241 1.3089C178.236 1.32014 179.238 1.39701 180.223 1.54545C184.458 2.18372 186.958 4.63022 187.663 9.02247C188.213 12.4515 188.133 15.9228 187.677 19.3604C187.356 21.7861 186.299 23.8492 184.31 25.2636C183.681 25.7115 183.438 26.0149 184.248 26.5316C187.25 28.4467 187.942 31.5725 188.06 34.8985C188.179 38.2467 188.127 41.6015 188.153 44.9533C188.161 46.1079 188.151 47.269 188.547 48.3712C188.913 49.3879 188.476 49.6235 187.585 49.5965C186.22 49.5552 184.852 49.5865 183.486 49.5929C181.082 49.6043 180.824 49.4235 180.745 46.8183C180.65 43.6888 180.716 40.5543 180.676 37.4225C180.658 35.9984 180.77 34.5592 180.412 33.1579C179.759 30.6022 176.239 28.8432 173.923 29.9159C173.206 30.2482 173.453 30.9434 173.452 31.4998C173.435 36.8304 173.441 42.161 173.442 47.4916C173.442 48.893 172.747 49.5918 171.357 49.5879C170.2 49.5859 169.037 49.5129 167.89 49.619C166.68 49.7309 166.263 49.3884 166.275 48.0165C166.345 40.4884 166.308 32.9593 166.308 25.4305L166.29 25.4305ZM180.599 15.5131C180.628 15.5131 180.656 15.5131 180.685 15.513C180.685 15.0187 180.685 14.5243 180.685 14.03C180.681 8.85976 179.636 7.96084 175.034 8.09508C173.822 8.13043 173.38 8.42615 173.413 9.75519C173.497 13.1034 173.441 16.4553 173.445 19.8058C173.447 22.0137 174.52 23.0246 176.663 22.8385C179.07 22.6293 180.296 21.4771 180.578 18.9666C180.705 17.8302 180.599 16.6652 180.599 15.5131Z" fill="#E6E3E3" />
              <path d="M111.406 25.4408C111.406 18.0201 111.448 10.599 111.371 3.17915C111.355 1.63106 111.819 1.13797 113.24 1.27007C114.388 1.3767 115.559 1.37056 116.707 1.26856C118.098 1.14501 118.623 1.5518 118.593 3.15418C118.492 8.7589 118.607 14.3678 118.52 19.973C118.496 21.5021 118.917 22.0235 120.37 21.924C122.045 21.8092 123.737 21.8196 125.414 21.9106C126.64 21.977 126.915 21.4602 126.905 20.2728C126.855 14.5566 126.928 8.83896 126.851 3.12341C126.832 1.66923 127.237 1.15195 128.625 1.26737C129.931 1.37602 131.258 1.37211 132.565 1.26711C133.917 1.15845 134.217 1.73075 134.213 3.06524C134.169 16.8621 134.201 30.6592 134.165 44.456C134.161 46.0177 134.874 48.0035 133.827 49.0391C132.867 49.9892 131.012 49.3177 129.553 49.3415C126.899 49.3848 126.888 49.3512 126.886 46.5284C126.881 41.1416 126.853 35.7543 126.917 30.3683C126.934 28.9953 126.567 28.5423 125.215 28.6721C123.651 28.8221 122.063 28.7168 120.487 28.6816C118.527 28.6378 118.536 28.6198 118.538 30.7466C118.542 36.3532 118.485 41.9606 118.572 47.5657C118.595 49.0831 118.104 49.4921 116.759 49.3768C115.505 49.2692 114.23 49.2571 112.977 49.3667C111.709 49.4776 111.361 48.9936 111.382 47.7018C111.451 43.5257 111.406 39.3475 111.406 35.1702C111.405 31.927 111.405 28.684 111.406 25.4408Z" fill="#E6E3E3" />
              <path d="M0.0310501 25.0878C0.0310501 20.4696 -0.0238099 15.8505 0.0463101 11.2335C0.11808 6.50668 2.57414 2.75024 6.35798 1.33829C11.0178 -0.400557 16.2944 0.814147 19.1105 4.27775C20.5672 6.06941 21.1641 8.24092 21.3733 10.4968C21.5501 12.405 21.4332 14.3415 21.4905 16.2641C21.5158 17.1113 21.2089 17.456 20.3923 17.4407C18.8155 17.411 17.2367 17.4071 15.6607 17.4593C14.7808 17.4885 14.6182 17.0463 14.6227 16.2495C14.633 14.4369 14.6417 12.6188 14.5221 10.8123C14.3885 8.79531 13.1328 7.59089 11.2624 7.4907C9.07877 7.37374 7.70188 8.34838 7.30258 10.3945C7.14634 11.1951 7.11737 12.0336 7.11631 12.855C7.10548 21.2119 7.1076 29.5688 7.12292 37.9257C7.12423 38.6352 7.17695 39.3609 7.32574 40.0508C7.78992 42.2033 9.08865 43.0905 11.4212 42.9266C13.1578 42.8046 14.42 41.5974 14.5089 39.6184C14.6466 36.5467 14.5917 33.4659 14.6426 30.3894C14.659 29.3996 14.0423 29.3113 13.386 29.4197C11.621 29.7112 11.1941 28.8316 11.3648 27.18C11.4771 26.0931 11.4313 24.9806 11.3734 23.8844C11.3208 22.8896 11.6779 22.5039 12.6404 22.5232C15.2163 22.5748 17.7938 22.5892 20.3699 22.5548C21.2054 22.5437 21.51 22.8815 21.4943 23.7075C21.388 29.3109 21.7285 34.9199 21.2868 40.5193C20.9214 45.1506 17.3631 49.8086 11.3911 49.7105C7.92969 49.6536 4.80774 49.1885 2.44275 46.2714C0.56997 43.9614 0.0373101 41.1949 0.0164901 38.2828C-0.0149899 33.8847 0.00828013 29.4861 0.00828013 25.0878C0.0158701 25.0878 0.0234601 25.0878 0.0310501 25.0878Z" fill="#E6E3E3" />
              <path d="M202.018 30.379C200.892 32.5833 199.663 34.3905 199.784 36.9042C199.961 40.5768 199.791 44.2663 199.852 47.947C199.87 49.055 199.504 49.4055 198.494 49.3641C197.076 49.3059 195.653 49.3005 194.237 49.3666C193.093 49.4199 192.701 49.0081 192.71 47.7613C192.763 40.5624 192.735 33.3629 192.735 26.1636C192.734 18.4696 192.773 10.7752 192.701 3.0819C192.687 1.58654 193.14 1.15076 194.498 1.26559C195.804 1.37605 197.128 1.34784 198.438 1.27412C199.552 1.21145 199.861 1.6698 199.852 2.80153C199.805 8.40633 199.831 14.0118 199.832 19.617C199.832 20.1581 199.832 20.6992 199.832 21.2385C200.553 21.3904 200.56 20.765 200.703 20.455C203.428 14.5254 206.152 8.59484 208.792 2.62416C209.246 1.59816 209.796 1.23329 210.82 1.27154C212.394 1.3304 213.973 1.26222 215.549 1.29148C216.27 1.30487 216.542 1.44948 216.099 2.37388C213.097 8.6454 210.22 14.983 207.213 21.2517C206.638 22.4485 206.81 23.4237 207.228 24.5276C210.174 32.3239 213.073 40.1399 216.072 47.9141C216.583 49.2383 216.252 49.4256 215.098 49.3515C214.051 49.2842 212.996 49.3587 211.945 49.3518C210.021 49.3391 208.713 48.3862 208.02 46.4929C206.204 41.5201 204.394 36.5446 202.575 31.5728C202.452 31.2358 202.273 30.9211 202.018 30.379Z" fill="#E6E3E3" />
              <path d="M150.215 1.28924C150.531 1.2891 150.846 1.2891 151.161 1.2891C155.498 1.28914 155.475 1.29297 156.147 5.71722C158.263 19.6462 160.381 33.5748 162.549 47.495C162.771 48.9239 162.565 49.5182 161.046 49.368C159.692 49.2341 158.312 49.2828 156.951 49.3748C155.798 49.4527 155.38 48.9654 155.267 47.804C155.081 45.8941 154.728 44.0028 154.493 42.0971C154.366 41.0584 153.974 40.5784 152.873 40.6287C150.827 40.7222 148.773 40.7063 146.726 40.6353C145.683 40.5992 145.202 40.9591 145.073 42.0655C144.845 44.0255 144.426 45.9639 144.255 47.9274C144.151 49.1132 143.637 49.4119 142.637 49.3636C141.693 49.3179 140.746 49.3552 139.8 49.3546C138.267 49.3536 137.617 48.5858 137.849 47.0511C139.195 38.273 140.544 29.4954 141.893 20.7177C142.809 14.7579 143.766 8.80445 144.611 2.83357C144.792 1.55088 145.278 1.18516 146.433 1.26876C147.688 1.35962 148.954 1.28938 150.215 1.28924ZM150.121 10.6472C149.489 11.6411 149.594 12.4974 149.477 13.2772C148.511 19.6823 147.605 26.0974 146.606 32.4968C146.392 33.8649 146.747 34.2752 148.04 34.1746C149.4 34.0687 150.778 34.0793 152.139 34.173C153.291 34.2521 153.45 33.7381 153.294 32.714C152.847 29.784 152.465 26.8433 152.044 23.9089C151.424 19.5868 150.792 15.2666 150.121 10.6472Z" fill="#E6E3E3" />
              <path d="M96.3588 49.651C89.4339 50.1354 85.9269 45.1078 85.6254 38.728C85.4397 34.8005 85.4073 34.8022 89.1203 34.802C91.3103 34.8019 92.4227 35.941 92.4574 38.2192C92.5068 41.4676 93.6929 42.931 96.2629 42.9142C98.532 42.8994 99.76 41.6353 99.9709 39.164C100.289 35.4421 98.6372 32.6037 96.2667 30.0994C93.7974 27.4906 90.9165 25.2972 88.879 22.2546C85.5508 17.2846 85.0001 11.8979 87.1275 6.3156C88.621 2.39682 91.8501 0.81184 95.644 0.630655C103.65 0.24828 107.225 5.13546 107.174 13.1331C107.169 13.9325 106.831 14.1817 106.113 14.1683C104.536 14.139 102.958 14.1323 101.381 14.1732C100.556 14.1947 100.263 13.84 100.28 13.0028C100.3 12.0203 100.355 11.0323 100.064 10.0624C99.4773 8.11356 98.3297 7.32732 96.2287 7.49328C94.5486 7.62599 93.3898 8.82346 93.1751 10.6909C92.8092 13.8736 93.6935 16.616 95.7183 19.0378C98.0737 21.8552 100.987 24.0773 103.284 26.9507C107.181 31.8262 108.191 37.3187 106.233 43.2867C104.745 47.821 101.7 49.6525 96.3588 49.651Z" fill="#E6E3E3" />
              <path d="M221.824 1.65283H281.179C267.6 17.1832 254.261 32.4382 240.923 47.6932C240.867 47.6473 240.811 47.6015 240.756 47.5556C241.052 46.9516 241.724 46.2036 241.573 45.7708C241.131 44.5096 240.358 43.3761 239.72 42.1893C239.484 41.7501 239.222 41.9741 238.937 42.1214C238.468 42.3649 237.962 42.5418 237.514 42.8209C236.473 43.4688 235.84 43.265 235.298 42.0611C234.386 40.0301 234.316 40.056 232.395 40.9188C231.95 41.119 231.519 41.3023 231.034 41.1038C228.18 39.9356 225.326 38.766 222.522 37.229C224.631 37.229 226.743 37.1538 228.846 37.2672C229.649 37.3104 230.12 38.1836 230.617 38.809C231.298 39.6662 231.917 39.8375 232.623 38.8497C232.904 38.4566 233.266 38.1263 233.598 37.7739C234.179 37.1561 234.771 37.1224 235.368 37.7545C235.478 37.8719 235.584 37.9948 235.699 38.1075C237.391 39.7671 237.467 39.8417 238.998 38.136C240.177 36.8215 240.984 37.3676 241.773 38.4361C242.65 39.6243 243.387 39.9302 244.394 38.5153C244.889 37.8204 245.559 37.0693 246.622 37.1997C247.204 37.2711 247.412 36.7262 247.663 36.3254C253.082 27.6542 258.477 18.9662 263.933 10.3196C264.577 9.29745 264.372 9.09604 263.354 8.92029C250.399 6.68468 237.449 4.42411 224.498 2.16684C223.733 2.03347 222.972 1.87426 221.824 1.65283Z" fill="#E6E3E3" />
              <path d="M36.0619 22.5493C36.74 19.8755 37.3996 17.3148 38.0379 14.7482C39.0283 10.7669 40.0285 6.78804 40.9696 2.79398C41.2181 1.73947 41.6109 1.17893 42.7604 1.26549C44.1197 1.36786 45.4993 1.3825 46.8558 1.26128C48.2722 1.13472 48.2716 1.72926 47.9363 2.8773C46.1133 9.11888 44.336 15.3751 42.5514 21.6288C41.5473 25.1472 40.5979 28.6832 39.5447 32.1852C39.1383 33.5365 39.1503 34.8885 39.1485 36.2581C39.1433 40.2137 39.1156 44.1697 39.167 48.1246C39.1817 49.2574 38.8833 49.7058 37.7386 49.623C36.2739 49.517 34.7936 49.5196 33.3274 49.6078C32.2595 49.672 31.9818 49.2514 31.9916 48.1968C32.0304 44.0218 31.934 39.8447 32.0137 35.671C32.0796 32.2195 30.7193 29.144 29.8581 25.9466C27.7685 18.1888 25.5716 10.462 23.349 2.74445C22.9778 1.45568 23.324 1.22183 24.4546 1.27548C25.9755 1.34763 27.5035 1.33403 29.0255 1.27498C30.0217 1.23634 30.4842 1.5654 30.7478 2.65731C32.262 8.92868 33.8686 15.1757 35.4501 21.4293C35.5376 21.7756 35.5351 22.184 36.0619 22.5493Z" fill="#E6E3E3" />
              <path d="M245.349 16.5091C240.731 18.2545 235.497 16.9758 229.658 12.6473C235.091 13.9845 240.11 15.2197 245.349 16.5091Z" fill="#E6E3E3" />
            </g>
            <defs>
              <clipPath id="clip0_298_775">
                <rect width="281.179" height="49.1605" fill="white" transform="translate(0 0.551514)" />
              </clipPath>
            </defs>
          </svg>