<svg width="111" height="50" viewBox="0 0 111 50" fill="none" xmlns="http://www.w3.org/2000/svg">
            <g clip-path="url(#clip0_298_792)">
              <path d="M11.0128 32.0451H5.44414V49.7268H0V0.551514H11.4221C14.0552 0.551514 16.1545 1.81928 17.7201 4.3548C19.2859 6.89032 20.0687 10.8159 20.0687 16.1315C20.0687 21.9365 19.2859 26.04 17.7201 28.442C16.1545 30.8439 13.9186 32.0451 11.0128 32.0451ZM13.5747 21.8029C14.2865 20.6243 14.6422 18.7561 14.6422 16.1981C14.6422 13.641 14.2834 11.8169 13.5658 10.7268C12.848 9.63754 11.8429 9.09218 10.5502 9.09218H5.44414V23.5711H10.5502C11.8429 23.5711 12.8511 22.9822 13.5747 21.8029Z" fill="#E6E3E3" />
              <path d="M35.3158 30.4437H29.6582V49.7268H24.3029V0.551514H37.1661C39.0043 0.618125 40.4188 1.04092 41.4092 1.81928C42.3995 2.59794 43.2387 3.74343 43.9268 5.25543C44.496 6.50129 44.9468 7.88007 45.279 9.39239C45.6109 10.9053 45.7771 12.6284 45.7771 14.5635C45.7771 16.8989 45.4626 19.1956 44.834 21.4528C44.2053 23.7104 43.1675 25.306 41.7207 26.2401C42.9304 27.1523 43.7872 28.4477 44.2915 30.1267C44.7954 31.8063 45.0477 34.3695 45.0477 37.8166V41.1196C45.0477 43.3661 45.0949 44.8894 45.1899 45.69C45.3323 46.9577 45.6642 47.8918 46.1862 48.4925V49.7268H40.155C39.9888 48.6373 39.8704 47.7586 39.7992 47.0912C39.6569 45.7125 39.5795 44.3002 39.5678 42.8542L39.5323 38.2838C39.5083 35.1476 39.2032 33.0574 38.616 32.0116C38.029 30.9665 36.9286 30.4437 35.3158 30.4437ZM38.6428 21.5027C39.7338 20.5686 40.2796 18.7227 40.2796 15.9648C40.2796 12.9846 39.7516 10.9829 38.6961 9.95965C38.103 9.38143 37.2133 9.09217 36.0274 9.09217H29.6582V22.3033H35.8673C37.1007 22.3033 38.0259 22.0365 38.6428 21.5027Z" fill="#E6E3E3" />
              <path d="M50.0647 0.551514H55.5088V49.7268H50.0647V0.551514Z" fill="#E6E3E3" />
              <path d="M65.6322 49.7268H60.5261V0.551514H68.4966L73.2646 39.2179L77.9972 0.551514H85.8786V49.7268H80.7725V16.4651C80.7725 15.5091 80.7784 14.169 80.7904 12.445C80.802 10.7216 80.8082 9.39238 80.8082 8.45829L75.8444 49.7268H70.5248L65.5966 8.45829C65.5966 9.39238 65.6025 10.7216 65.6143 12.445C65.626 14.169 65.6322 15.5091 65.6322 16.4651V49.7268Z" fill="#E6E3E3" />
              <path d="M109.221 28.2418H96.4823V40.886H111V49.7268H91.1271V0.551514H110.359V9.25885H96.4823V19.7012H109.221V28.2418Z" fill="#E6E3E3" />
            </g>
            <defs>
              <clipPath id="clip0_298_792">
                <rect width="111" height="49.1753" fill="white" transform="translate(0 0.551514)" />
              </clipPath>
            </defs>
          </svg>