<svg width="19" height="18" viewBox="0 0 19 18" fill="none" xmlns="http://www.w3.org/2000/svg">
<g id="_&#208;&#161;&#208;&#187;&#208;&#190;&#208;&#185;_1" clip-path="url(#clip0_488_568)">
<path id="Vector" d="M19 2.33601V15.6652C18.988 15.7089 18.9739 15.7521 18.9644 15.7962C18.7587 16.7603 18.1695 17.3973 17.1883 17.6972C17.0529 17.7386 16.9118 17.763 16.7733 17.7952H2.83813C2.80435 17.785 2.77128 17.7706 2.73669 17.7652C1.50508 17.5752 0.613595 16.5913 0.612712 15.4001C0.609543 11.1302 0.6088 6.8603 0.613129 2.5904C0.614463 1.27365 1.72704 0.209164 3.10443 0.207836C7.5744 0.203526 12.0444 0.204177 16.5144 0.207758C17.6323 0.208653 18.5977 0.922648 18.9036 1.95476C18.9409 2.08045 18.9681 2.20886 19 2.33601ZM15.5545 5.22796C15.5461 5.05149 15.4846 4.93175 15.3656 4.8411C15.1586 4.68343 14.9383 4.70508 14.7048 4.78567C11.2602 5.97496 7.81472 7.16188 4.36944 8.34937C4.15566 8.42305 4.0544 8.53881 4.06157 8.70115C4.06878 8.86444 4.17934 8.97349 4.39692 9.03013C5.20393 9.24024 6.01027 9.45277 6.81882 9.65728C6.95496 9.69172 7.02641 9.75329 7.07158 9.8831C7.36401 10.7235 7.66511 11.5611 7.96454 12.3993C8.11917 12.8322 8.48615 12.9229 8.833 12.6123C9.23061 12.2563 9.62934 11.9012 10.0179 11.5362C10.1223 11.4381 10.1885 11.445 10.3014 11.5192C11.1393 12.0702 11.9805 12.6167 12.8241 13.1596C13.2272 13.4191 13.6549 13.2566 13.7611 12.8092C14.2854 10.6017 14.8086 8.39397 15.3316 6.18623C15.4095 5.85756 15.4847 5.52832 15.5545 5.22796Z" fill="white"/>
<path id="Vector_2" d="M7.46428 9.64977C7.45317 9.49543 7.54675 9.43717 7.64935 9.38107C8.46361 8.93583 9.27697 8.4891 10.0908 8.04311C11.1378 7.46928 12.185 6.8957 13.2322 6.32201C13.2529 6.31064 13.2735 6.29899 13.2943 6.28773C13.3711 6.24619 13.4529 6.21175 13.5161 6.29939C13.5792 6.38702 13.4991 6.43543 13.4406 6.48144C13.0712 6.77209 12.7004 7.06117 12.3301 7.3507C11.1217 8.2953 9.91432 9.24102 8.70346 10.1827C8.58297 10.2764 8.52371 10.3803 8.5084 10.5289C8.46446 10.9555 8.40653 11.3808 8.35069 11.8062C8.34546 11.846 8.3608 11.9107 8.29633 11.9182C8.23112 11.9259 8.23151 11.8633 8.21716 11.8225C7.97161 11.1244 7.72644 10.4263 7.48197 9.72791C7.47069 9.6957 7.46677 9.66113 7.46428 9.64977Z" fill="white"/>
</g>
<defs>
<clipPath id="clip0_488_568">
<rect width="18.3899" height="17.5903" fill="white" transform="translate(0.610107 0.204834)"/>
</clipPath>
</defs>
</svg>
