<svg width="20" height="18" viewBox="0 0 20 18" fill="none" xmlns="http://www.w3.org/2000/svg">
<g id="_&#208;&#161;&#208;&#187;&#208;&#190;&#208;&#185;_1" clip-path="url(#clip0_488_561)">
<path id="Vector" d="M19.1895 1.8589V16.1466C19.1548 16.1701 19.1599 16.2065 19.1527 16.2394C19.0259 16.8211 18.6793 17.257 18.1215 17.5566C17.8934 17.6791 17.6372 17.7228 17.391 17.7952H1.80423C1.78884 17.7863 1.7743 17.7715 1.75793 17.7695C0.867177 17.663 -0.00346201 16.9144 1.03521e-05 15.7868C0.0139321 11.2653 0.00596316 6.74386 0.00504736 2.2224C0.00501023 2.03866 0.014109 1.85641 0.061831 1.6775C0.299344 0.787032 1.11324 0.211156 2.14494 0.21085C6.3782 0.209594 10.6115 0.210277 14.8447 0.210354C15.6127 0.210368 16.3812 0.195066 17.1485 0.215357C18.0206 0.238416 18.6476 0.632093 19.0146 1.35799C19.0944 1.51582 19.1323 1.69146 19.1895 1.8589ZM16.1304 15.1205C16.0557 15.0188 16.0048 14.9483 15.9526 14.8786C14.2848 12.6535 12.6178 10.4278 10.946 8.20521C10.865 8.09754 10.8607 8.03574 10.9577 7.93286C12.4884 6.30927 14.0139 4.68159 15.5393 3.05377C15.5849 3.00514 15.6565 2.96766 15.6547 2.87429C15.3459 2.87429 15.0408 2.88027 14.7362 2.87152C14.6039 2.86772 14.5189 2.90991 14.4343 3.00027C13.1096 4.41644 11.7797 5.82846 10.4571 7.24629C10.3416 7.3701 10.3021 7.3461 10.214 7.22786C9.16489 5.82056 8.10895 4.41755 7.05963 3.01039C6.98346 2.90825 6.90381 2.87113 6.77051 2.87166C5.60922 2.87622 4.44791 2.87392 3.28661 2.8753C3.22362 2.87538 3.15284 2.85562 3.08852 2.90738C3.13481 2.97031 3.17577 3.02689 3.2177 3.08285C4.82172 5.22325 6.42369 7.36495 8.03453 9.50102C8.1468 9.64989 8.13008 9.72865 8.00802 9.85792C6.42706 11.5325 4.85298 13.2125 3.2773 14.8912C3.21461 14.958 3.15322 15.0258 3.06596 15.1205C3.42218 15.1205 3.73302 15.1158 4.04355 15.1228C4.16651 15.1256 4.24769 15.091 4.32928 15.0037C5.73462 13.5001 7.1456 12.001 8.54979 10.4966C8.6608 10.3776 8.70068 10.3913 8.79069 10.5121C9.90291 12.0045 11.0222 13.4925 12.1349 14.9847C12.2106 15.0861 12.2874 15.1248 12.422 15.1236C13.1649 15.1172 13.9079 15.1205 14.6509 15.1205H16.1304Z" fill="white"/>
<path id="Vector_2" d="M4.64062 3.67327C5.22296 3.67327 5.77104 3.67516 6.31907 3.67161C6.42408 3.67092 6.45418 3.74055 6.49886 3.79908C7.46101 5.05959 8.42242 6.32057 9.38406 7.58141C11.0642 9.78433 12.7445 11.9872 14.4245 14.1902C14.4598 14.2365 14.4929 14.2841 14.5278 14.3321C14.4793 14.3839 14.4196 14.3604 14.3686 14.3606C13.8942 14.3627 13.4197 14.3592 12.9454 14.3639C12.8359 14.365 12.7644 14.3402 12.6981 14.253C10.041 10.7641 7.38091 7.27713 4.72139 3.78977C4.70052 3.76241 4.6822 3.73341 4.64062 3.67327Z" fill="white"/>
</g>
<defs>
<clipPath id="clip0_488_561">
<rect width="19.1895" height="17.5903" fill="white" transform="translate(0 0.204834)"/>
</clipPath>
</defs>
</svg>
